# xmcd
#
# Track frame offsets:
#	150
#	10982
#	22887
#	37720
#	51902
#	65900
#	78710
#	90597
#	107590
#	129295
#	140792
#	153042
#	165903
#	179313
#	202242
#	217213
#	227373
#	238479
#
# Disc length: 3377 seconds
#
# Revision: 1
# Processed by: cddbd v1.5.2PL0 Copyright (c) Steve Scherf et al.
# Submitted via: EZCDAudioConverter 2.1.7.1
#
DISCID=f20d2f12
DTITLE=The Cramps - Stay Sick!
DYEAR=1900
DGENRE=
TTITLE0=Bop Pills
TTITLE1=God Damn Rock N' Roll
TTITLE2=Bikini Girls With Machine Guns
TTITLE3=All Women Are Bad
TTITLE4=The Creature From The Black Leather Lagoon
TTITLE5=Shortnin' Bread
TTITLE6=Daisys Up Your Butterfly
TTITLE7=Everything Goes
TTITLE8=Journey To The Center Of A Girl
TTITLE9=Mama Oo Pow Pow
TTITLE10=Saddle Up A Buzz Buzz
TTITLE11=Muleskinner Blues
TTITLE12=Her Love Rubbed Off
TTITLE13=Her Love Rubbed Off [Live]
TTITLE14=Bikini Girls With Machine Guns [Live]
TTITLE15=Beat Out My Love
TTITLE16=Jailhouse Rock
TTITLE17=Jackyard Backoff
EXTD=
EXTT0=
EXTT1=
EXTT2=
EXTT3=
EXTT4=
EXTT5=
EXTT6=
EXTT7=
EXTT8=
EXTT9=
EXTT10=
EXTT11=
EXTT12=
EXTT13=
EXTT14=
EXTT15=
EXTT16=
EXTT17=
PLAYORDER=
